<?xml version="1.0" standalone="no"?><!DOCTYPE svg PUBLIC "-//W3C//DTD SVG 1.1//EN" "http://www.w3.org/Graphics/SVG/1.1/DTD/svg11.dtd" ><svg xmlns="http://www.w3.org/2000/svg"><metadata></metadata><defs><font id="fonteditor" horiz-adv-x="285"><font-face font-family="e¹kckcN-Ñ{OS" font-weight="400" font-stretch="normal" units-per-em="256" panose-1="2 0 0 0 0 0 0 0 0 0" ascent="229" descent="-85" x-height="0" bbox="-19 -85 283 214" underline-thickness="0" underline-position="0" unicode-range="U+0041-ff0c" /><missing-glyph horiz-adv-x="256"  /><glyph glyph-name="A" unicode="a" d="M2 -17 L88 199 L130 199 L216 -17 L178 -17 L156 41 L62 41 L39 -17 L2 -17 ZM109 166 L70 64 L147 64 L109 166 Z" /><glyph glyph-name="B" unicode="b" d="M20 -17 L20 198 L119 198 Q188 198 188 146 Q189 106 149 95 Q196 85 197 44 Q200 -19 120 -17 L20 -17 ZM112 81 L55 81 L55 4 L115 4 Q162 3 161 41 Q161 81 112 81 ZM55 176 L55 106 L110 106 Q152 106 152 142 Q153 177 108 176 L55 176 Z" /><glyph glyph-name="C" unicode="c" d="M206 133 L171 133 Q159 178 115 179 Q52 174 49 89 Q52 5 123 0 Q172 0 205 55 L205 23 Q176 -22 114 -21 Q18 -16 13 90 Q18 196 114 202 Q187 200 206 133 Z" /><glyph glyph-name="D" unicode="d" d="M54 4 L89 4 Q168 1 166 91 Q167 177 89 176 L54 176 L54 4 ZM19 -17 L19 199 L91 199 Q203 200 202 92 Q207 -22 92 -17 L19 -17 Z" /><glyph glyph-name="E" unicode="e" d="M16 -17 L16 199 L181 199 L181 176 L51 176 L51 105 L174 105 L174 82 L51 82 L51 4 L181 4 L181 -17 L16 -17 Z" /><glyph glyph-name="F" unicode="f" d="M19 -17 L19 199 L170 199 L170 176 L54 176 L54 102 L164 102 L164 80 L54 80 L54 -17 L19 -17 Z" /><glyph glyph-name="G" unicode="g" d="M215 137 L178 137 Q164 179 118 179 Q53 174 49 90 Q53 6 122 0 Q165 0 182 34 L182 79 L113 79 L113 102 L215 102 L215 22 Q191 -21 122 -21 Q17 -17 13 90 Q18 197 118 202 Q194 201 215 137 Z" /><glyph glyph-name="H" unicode="h" d="M19 -17 L19 199 L54 199 L54 106 L166 106 L166 199 L201 199 L201 -17 L166 -17 L166 83 L54 83 L54 -17 L19 -17 Z" /><glyph glyph-name="I" unicode="i" d="M18 -17 L18 199 L52 199 L52 -17 L18 -17 Z" /><glyph glyph-name="J" unicode="j" d="M11 7 L11 33 Q38 0 73 0 Q122 0 121 59 L121 198 L156 198 L156 58 Q156 -21 83 -21 Q36 -22 11 7 Z" /><glyph glyph-name="K" unicode="k" d="M17 -17 L17 199 L52 199 L52 85 L160 199 L206 199 L116 108 L212 -17 L170 -17 L93 84 L52 41 L52 -17 L17 -17 Z" /><glyph glyph-name="L" unicode="l" d="M20 -17 L20 199 L55 199 L55 4 L170 4 L170 -17 L20 -17 Z" /><glyph glyph-name="M" unicode="m" d="M196 199 L240 199 L240 -17 L207 -17 L207 144 L144 -16 L114 -16 L51 144 L51 -17 L18 -17 L18 199 L63 199 L129 22 L196 199 Z" /><glyph glyph-name="N" unicode="n" d="M17 -17 L17 199 L52 199 L166 31 L166 199 L200 199 L200 -17 L167 -17 L52 147 L52 -17 L17 -17 Z" /><glyph glyph-name="O" unicode="o" d="M118 0 Q186 3 188 89 Q185 175 119 179 Q52 173 48 89 Q51 5 118 0 ZM118 -21 Q18 -15 12 89 Q17 197 119 202 Q217 196 224 89 Q219 -16 118 -21 Z" /><glyph glyph-name="P" unicode="p" d="M19 -17 L19 199 L112 199 Q186 198 187 131 Q188 62 111 63 L54 63 L54 -17 L19 -17 ZM54 176 L54 86 L104 86 Q153 85 151 132 Q152 177 104 176 L54 176 Z" /><glyph glyph-name="Q" unicode="q" d="M161 -77 L113 -20 Q17 -11 12 89 Q17 197 119 202 Q217 196 224 90 Q222 6 151 -16 L205 -77 L161 -77 ZM118 0 Q186 3 188 89 Q185 175 119 179 Q52 173 48 89 Q51 5 118 0 Z" /><glyph glyph-name="R" unicode="r" d="M168 -17 L100 72 L54 72 L54 -17 L19 -17 L19 199 L120 199 Q196 199 196 135 Q197 77 138 73 L209 -17 L168 -17 ZM54 176 L54 95 L112 95 Q162 94 160 134 Q160 176 112 176 L54 176 Z" /><glyph glyph-name="S" unicode="s" d="M13 24 L13 53 Q46 1 100 0 Q152 1 153 39 Q153 71 101 79 Q15 92 19 143 Q21 200 98 201 Q170 201 184 137 L150 137 Q138 178 98 178 Q56 178 55 143 Q53 114 104 107 Q190 93 189 41 Q188 -21 105 -21 Q43 -21 13 24 Z" /><glyph glyph-name="T" unicode="t" d="M10 176 L10 199 L192 199 L192 176 L118 176 L118 -17 L83 -17 L83 176 L10 176 Z" /><glyph glyph-name="U" unicode="u" d="M17 74 L17 199 L52 199 L52 66 Q52 0 109 0 Q168 -1 166 66 L166 199 L201 199 L201 75 Q205 -25 108 -21 Q15 -23 17 74 Z" /><glyph glyph-name="V" unicode="v" d="M89 -17 L3 199 L40 199 L110 12 L177 199 L214 199 L129 -17 L89 -17 Z" /><glyph glyph-name="W" unicode="w" d="M56 -17 L2 199 L38 199 L78 19 L123 199 L163 199 L208 19 L247 199 L283 199 L228 -17 L189 -17 L143 156 L97 -17 L56 -17 Z" /><glyph glyph-name="X" unicode="x" d="M1 -17 L83 92 L8 199 L50 199 L107 113 L164 199 L206 199 L131 92 L213 -17 L170 -17 L107 71 L44 -17 L1 -17 Z" /><glyph glyph-name="Y" unicode="y" d="M90 -17 L90 71 L3 199 L44 199 L109 99 L174 199 L214 199 L125 71 L125 -17 L90 -17 Z" /><glyph glyph-name="Z" unicode="z" d="M10 -17 L10 4 L147 176 L15 176 L15 199 L190 199 L190 176 L53 4 L195 4 L195 -17 L10 -17 Z" /><glyph glyph-name="a" unicode="a" d="M122 0 L122 58 L82 58 Q37 58 37 28 Q37 1 78 0 L122 0 ZM84 81 L122 81 Q124 121 83 119 Q49 120 38 89 L11 89 Q23 141 84 140 Q148 140 147 85 L147 -21 L77 -21 Q12 -20 11 26 Q11 81 84 81 Z" /><glyph glyph-name="b" unicode="b" d="M81 117 L56 117 L56 1 L82 1 Q135 1 135 58 Q136 118 81 117 ZM21 -20 L21 213 L56 213 L56 140 L89 140 Q170 139 171 59 Q171 -20 89 -20 L21 -20 Z" /><glyph glyph-name="c" unicode="c" d="M167 87 L133 87 Q124 117 92 117 Q51 114 49 58 Q50 1 103 0 Q137 0 167 37 L167 9 Q144 -21 94 -21 Q17 -18 13 58 Q16 137 92 140 Q153 139 167 87 Z" /><glyph glyph-name="d" unicode="d" d="M126 1 L126 117 L101 117 Q47 117 47 58 Q48 1 101 1 L126 1 ZM93 140 L126 140 L126 213 L161 213 L161 -20 L94 -20 Q12 -21 11 59 Q12 139 93 140 Z" /><glyph glyph-name="e" unicode="e" d="M168 49 L46 49 Q51 1 102 0 Q139 0 166 32 L166 7 Q143 -21 94 -21 Q13 -18 10 57 Q12 137 89 140 Q169 141 168 49 ZM47 72 L134 72 Q132 115 90 117 Q52 116 47 72 Z" /><glyph glyph-name="f" unicode="f" d="M96 137 L96 114 L67 114 L67 -16 L32 -16 L32 114 L11 114 L11 137 L32 137 L32 163 Q31 214 81 213 L117 213 L117 190 L93 190 Q67 191 67 164 L67 137 L96 137 Z" /><glyph glyph-name="g" unicode="g" d="M130 9 L130 116 L103 116 Q48 115 47 60 Q48 9 102 9 L130 9 ZM17 -55 L17 -30 Q45 -58 79 -58 Q132 -59 130 -12 L94 -12 Q11 -12 11 60 Q13 138 95 139 L165 139 L165 -6 Q167 -82 88 -80 Q43 -80 17 -55 Z" /><glyph glyph-name="h" unicode="h" d="M19 -16 L19 212 L54 212 L54 140 L97 140 Q161 140 161 84 L161 -16 L126 -16 L126 78 Q127 118 84 117 L54 117 L54 -16 L19 -16 Z" /><glyph glyph-name="i" unicode="i" d="M16 -17 L16 136 L51 136 L51 -17 L16 -17 ZM16 167 L16 199 L51 199 L51 167 L16 167 Z" /><glyph glyph-name="j" unicode="j" d="M21 167 L21 198 L56 198 L56 167 L21 167 ZM-19 -73 L-19 -53 Q-8 -58 2 -58 Q22 -59 21 -34 L21 136 L56 136 L56 -32 Q58 -83 13 -81 Q-4 -81 -19 -73 Z" /><glyph glyph-name="k" unicode="k" d="M18 -16 L18 212 L52 212 L52 70 L122 138 L168 138 L104 77 L173 -16 L131 -16 L80 55 L52 29 L52 -16 L18 -16 Z" /><glyph glyph-name="l" unicode="l" d="M18 -16 L18 212 L53 212 L53 -16 L18 -16 Z" /><glyph glyph-name="m" unicode="m" d="M16 -17 L16 140 L191 140 Q251 141 250 88 L250 -17 L215 -17 L215 84 Q216 117 180 117 L150 117 L150 -17 L116 -17 L116 88 Q116 117 86 117 L51 117 L51 -17 L16 -17 Z" /><glyph glyph-name="n" unicode="n" d="M15 -17 L15 140 L94 140 Q158 141 157 81 L157 -17 L123 -17 L123 77 Q123 117 85 117 L50 117 L50 -17 L15 -17 Z" /><glyph glyph-name="o" unicode="o" d="M91 0 Q133 2 134 58 Q133 116 91 118 Q48 117 47 58 Q49 3 91 0 ZM90 -21 Q16 -17 12 58 Q15 137 92 140 Q167 137 170 59 Q168 -19 90 -21 Z" /><glyph glyph-name="p" unicode="p" d="M53 0 L79 0 Q132 0 132 59 Q132 117 79 117 L53 117 L53 0 ZM19 -80 L19 140 L86 140 Q169 140 168 59 Q168 -21 87 -21 L53 -21 L53 -80 L19 -80 Z" /><glyph glyph-name="q" unicode="q" d="M127 0 L127 117 L101 117 Q48 117 48 59 Q48 0 102 0 L127 0 ZM127 -80 L127 -21 L94 -21 Q13 -21 12 59 Q11 140 94 140 L162 140 L162 -80 L127 -80 Z" /><glyph glyph-name="r" unicode="r" d="M16 -20 L16 87 Q17 139 68 139 L118 139 L118 116 L79 116 Q52 116 51 89 L51 -20 L16 -20 Z" /><glyph glyph-name="s" unicode="s" d="M10 9 L10 36 Q41 0 80 0 Q116 0 115 22 Q117 42 80 48 Q14 59 14 97 Q18 138 76 140 Q132 139 143 94 L111 94 Q107 117 78 117 Q48 117 48 97 Q46 77 88 72 Q148 62 150 23 Q151 -21 81 -21 Q39 -21 10 9 Z" /><glyph glyph-name="t" unicode="t" d="M7 114 L7 137 L33 137 L33 199 L68 199 L68 137 L102 137 L102 114 L68 114 L68 24 Q67 1 86 2 Q95 2 105 8 L105 -10 Q93 -21 74 -21 Q32 -22 33 21 L33 114 L7 114 Z" /><glyph glyph-name="u" unicode="u" d="M15 38 L15 136 L49 136 L49 41 Q48 0 89 1 L122 1 L122 136 L157 136 L157 -20 L76 -20 Q13 -21 15 38 Z" /><glyph glyph-name="v" unicode="v" d="M62 -16 L3 137 L40 137 L82 13 L124 137 L162 137 L101 -16 L62 -16 Z" /><glyph glyph-name="w" unicode="w" d="M231 137 L179 -16 L145 -16 L117 89 L89 -16 L55 -16 L2 137 L38 137 L72 25 L101 137 L133 137 L161 25 L196 137 L231 137 Z" /><glyph glyph-name="x" unicode="x" d="M3 -16 L64 60 L8 137 L48 137 L88 79 L127 137 L166 137 L111 61 L170 -16 L129 -16 L88 41 L44 -16 L3 -16 Z" /><glyph glyph-name="y" unicode="y" d="M8 -73 L8 -54 Q18 -59 30 -59 Q49 -58 60 -31 L68 -13 L3 136 L41 136 L85 23 L125 136 L163 136 L98 -23 Q75 -85 37 -81 Q20 -82 8 -73 Z" /><glyph glyph-name="z" unicode="z" d="M8 -16 L8 5 L103 114 L12 114 L12 137 L146 137 L146 114 L50 5 L150 5 L150 -16 L8 -16 Z" /><glyph glyph-name="uni3002" unicode="&#x3002;" d="M65 -22 Q27 -19 24 16 Q27 55 65 57 Q104 55 106 16 Q104 -20 65 -22 ZM66 -7 Q89 -6 90 16 Q89 40 66 41 Q42 40 41 16 Q42 -6 66 -7 Z" /><glyph glyph-name="uni4E2A" unicode="&#x4e2a;" d="M246 110 Q166 134 128 176 Q90 134 10 110 L10 130 Q77 156 109 208 L147 208 Q179 156 246 130 L246 110 ZM110 -25 L110 130 L145 130 L145 -25 L110 -25 Z" /><glyph glyph-name="uni4F1A" unicode="&#x4f1a;" d="M245 110 Q215 119 193 130 L193 109 L61 109 L61 130 Q41 119 11 110 L11 130 Q76 156 110 208 L145 208 Q178 156 245 130 L245 110 ZM18 60 L18 82 L238 82 L238 60 L116 60 Q100 31 73 9 Q140 9 181 13 Q176 28 167 42 L195 42 Q213 13 222 -20 L192 -20 Q191 -12 188 -6 Q132 -13 62 -13 L40 -13 L40 9 Q68 36 79 60 L18 60 ZM128 177 Q98 146 63 130 L193 130 Q158 146 128 177 Z" /><glyph glyph-name="uni4F53" unicode="&#x4f53;" d="M83 150 L83 171 L143 171 L143 205 L174 205 L174 171 L235 171 L235 150 L214 150 Q212 78 240 29 L240 2 Q185 55 187 150 L174 150 L174 42 L207 42 L207 22 L174 22 L174 -24 L143 -24 L143 22 L108 22 L108 42 L143 42 L143 150 L129 150 Q130 55 76 2 L76 29 Q104 78 102 150 L83 150 ZM37 -24 L37 119 Q26 112 11 108 L11 126 Q47 150 57 205 L88 205 Q78 164 67 147 L67 -24 L37 -24 Z" /><glyph glyph-name="uni5199" unicode="&#x5199;" d="M150 -22 L150 -2 L176 -2 Q196 -3 195 15 L195 69 L44 69 L44 90 Q51 118 52 158 L84 158 Q82 144 82 137 L219 137 L219 116 L79 116 Q77 102 74 90 L227 90 L227 15 Q228 -23 188 -22 L150 -22 ZM19 149 L19 194 L237 194 L237 149 L206 149 L206 173 L50 173 L50 149 L19 149 ZM11 25 L11 45 L179 45 L179 25 L11 25 Z" /><glyph glyph-name="uni51E0" unicode="&#x51e0;" d="M191 -16 Q154 -17 155 18 L155 173 L89 173 L89 108 Q95 15 16 -24 L16 -2 Q57 30 54 96 L54 195 L189 195 L189 20 Q188 3 204 4 Q220 3 219 19 L219 29 L243 29 L243 12 Q243 -17 210 -16 L191 -16 Z" /><glyph glyph-name="uni51FA" unicode="&#x51fa;" d="M32 98 L32 189 L62 189 L62 120 L111 120 L111 206 L145 206 L145 120 L175 120 Q194 119 193 139 L193 189 L223 189 L223 134 Q224 97 188 98 L145 98 L145 4 L183 4 Q203 3 202 23 L202 77 L232 77 L232 17 Q232 -16 196 -16 L23 -16 L23 77 L54 77 L54 4 L111 4 L111 98 L32 98 Z" /><glyph glyph-name="uni5305" unicode="&#x5305;" d="M73 -18 Q38 -19 39 15 L39 138 L155 138 L155 85 Q156 50 122 51 L71 51 L71 19 Q70 1 88 2 L199 2 Q215 1 214 16 L214 25 L240 25 L240 14 Q241 -19 206 -18 L73 -18 ZM13 132 L13 150 Q51 166 61 205 L95 205 Q92 195 88 187 L221 187 L221 71 Q222 35 186 35 L161 35 L161 56 L174 56 Q189 55 188 71 L188 165 L75 165 Q55 142 13 132 ZM71 117 L71 72 L112 72 Q127 72 126 85 L126 117 L71 117 Z" /><glyph glyph-name="uni54E6" unicode="&#x54e6;" d="M91 168 L91 189 L127 189 Q146 189 161 196 L161 174 Q152 170 140 169 L140 140 L169 140 Q169 170 169 205 L196 205 Q196 168 196 140 L243 140 L243 120 L197 120 Q197 91 200 67 Q209 85 218 108 L242 108 Q228 61 204 35 Q209 -3 222 -3 Q231 -4 230 14 L248 14 Q249 -25 222 -24 Q194 -24 183 16 Q168 5 149 -3 L149 17 Q165 27 177 39 Q176 49 174 61 Q174 67 173 80 Q171 105 170 120 L140 120 L140 82 Q145 83 155 87 Q161 89 164 90 L164 70 Q153 64 140 59 L140 5 Q141 -23 112 -22 L95 -22 L95 -1 L104 -1 Q115 -2 114 8 L114 52 Q102 49 88 48 L88 74 Q94 74 107 76 Q112 77 114 77 L114 120 L88 120 L88 140 L114 140 L114 168 L91 168 ZM19 -2 L19 189 L81 189 L81 24 Q83 -4 53 -2 L19 -2 ZM42 17 L50 17 Q59 17 59 26 L59 169 L42 169 L42 17 ZM214 152 Q211 172 203 195 L224 195 Q234 172 238 152 L214 152 Z" /><glyph glyph-name="uni5728" unicode="&#x5728;" d="M20 163 L20 184 L81 184 Q82 186 83 191 Q86 199 87 205 L121 205 Q119 195 116 184 L244 184 L244 163 L108 163 Q98 140 76 116 L76 -24 L44 -24 L44 93 Q31 86 14 78 L14 99 Q56 125 73 163 L20 163 ZM93 77 L93 99 L147 99 L147 144 L179 144 L179 99 L232 99 L232 77 L179 77 L179 9 L243 9 L243 -11 L84 -11 L84 9 L147 9 L147 77 L93 77 Z" /><glyph glyph-name="uni5B57" unicode="&#x5b57;" d="M12 49 L12 71 L116 71 L116 86 Q140 96 161 115 L52 115 L52 136 L207 136 L207 114 Q180 92 151 79 L151 71 L244 71 L244 49 L151 49 L151 11 Q152 -24 116 -22 L83 -22 L83 -1 L103 -1 Q117 -2 116 12 L116 49 L12 49 ZM20 142 L20 185 L109 185 L109 205 L147 205 L147 185 L236 185 L236 143 L205 143 L205 164 L51 164 L51 142 L20 142 Z" /><glyph glyph-name="uni5C31" unicode="&#x5c31;" d="M130 131 L130 152 L154 152 L154 206 L182 206 L182 152 L239 152 L239 131 L182 131 Q182 121 181 111 L206 111 L206 7 Q205 0 215 0 Q225 0 224 7 L224 20 L244 20 L244 6 Q245 -20 218 -19 L207 -19 Q177 -20 178 6 L178 81 Q172 21 122 -25 L122 0 L126 7 Q100 22 98 58 L120 58 Q120 35 134 22 Q155 62 154 131 L130 131 ZM24 72 L24 146 L123 146 L123 102 Q125 70 94 72 L90 72 L90 9 Q91 -23 60 -22 L41 -22 L41 -2 L49 -2 Q63 -3 62 9 L62 72 L24 72 ZM15 164 L15 185 L58 185 L58 206 L91 206 L91 185 L133 185 L133 164 L15 164 ZM51 91 L85 91 Q98 90 97 103 L97 127 L51 127 L51 91 ZM9 -6 L9 12 Q26 27 29 58 L52 58 Q48 8 9 -6 ZM204 160 Q201 178 194 197 L217 197 Q227 177 230 160 L204 160 Z" /><glyph glyph-name="uni5F88" unicode="&#x5f88;" d="M95 -24 L95 196 L229 196 L229 115 Q230 81 198 82 L125 82 L125 11 Q127 12 130 13 Q146 19 156 25 L156 2 Q126 -15 95 -24 ZM38 -25 L38 79 Q37 79 35 78 Q27 74 13 69 L13 88 Q47 105 57 143 L87 143 Q80 118 68 103 L68 -25 L38 -25 ZM243 -22 Q162 0 141 73 L171 73 Q171 72 172 70 Q180 48 186 40 Q204 52 212 73 L240 73 Q228 39 198 25 Q214 8 243 -2 L243 -22 ZM13 132 L13 150 Q46 166 57 205 L88 205 Q74 150 13 132 ZM188 103 Q201 102 201 118 L201 129 L125 129 L125 103 L188 103 ZM125 175 L125 149 L201 149 L201 175 L125 175 Z" /><glyph glyph-name="uni6253" unicode="&#x6253;" d="M15 146 L15 168 L46 168 L46 204 L78 204 L78 168 L106 168 L106 146 L78 146 L78 98 Q91 101 109 107 L109 87 Q93 80 78 75 L78 5 Q79 -23 49 -22 L23 -22 L23 -1 L37 -1 Q47 -2 46 7 L46 66 Q31 62 11 59 L11 86 Q32 88 46 91 L46 146 L15 146 ZM113 167 L113 189 L245 189 L245 167 L203 167 L203 11 Q203 -23 170 -22 L137 -22 L137 0 L156 0 Q170 -1 169 11 L169 167 L113 167 Z" /><glyph glyph-name="uni6765" unicode="&#x6765;" d="M241 -11 Q174 9 160 73 L144 73 L144 -25 L111 -25 L111 73 L96 73 Q82 10 15 -11 L15 7 Q55 30 64 73 L14 73 L14 95 L111 95 L111 164 L26 164 L26 186 L111 186 L111 206 L144 206 L144 186 L230 186 L230 164 L144 164 L144 95 L241 95 L241 73 L191 73 Q201 30 241 7 L241 -11 ZM169 107 Q179 128 181 152 L211 152 Q207 124 198 107 L169 107 ZM58 107 Q48 127 44 152 L74 152 Q76 131 87 107 L58 107 Z" /><glyph glyph-name="uni6837" unicode="&#x6837;" d="M99 158 L99 179 L121 179 Q116 190 114 205 L143 205 Q146 191 150 179 L186 179 Q190 191 193 205 L222 205 Q219 190 215 179 L238 179 L238 158 L184 158 L184 116 L231 116 L231 95 L184 95 L184 51 L244 51 L244 30 L184 30 L184 -24 L152 -24 L152 30 L92 30 L92 51 L152 51 L152 95 L105 95 L105 116 L152 116 L152 158 L99 158 ZM15 150 L15 171 L41 171 L41 206 L70 206 L70 171 L92 171 L92 150 L71 150 Q79 115 95 86 L95 55 Q83 70 70 93 L70 -25 L41 -25 L41 81 Q32 57 10 26 L10 59 Q31 103 40 150 L15 150 Z" /><glyph glyph-name="uni6C49" unicode="&#x6c49;" d="M243 -24 Q187 0 161 23 Q137 2 79 -24 L79 -2 Q118 18 142 42 Q109 79 93 153 L124 153 Q137 96 161 63 Q187 100 197 168 L87 168 L87 190 L229 190 L229 169 Q216 84 179 42 Q203 17 243 -2 L243 -24 ZM16 -20 Q39 26 44 77 L71 77 Q67 21 48 -20 L16 -20 ZM39 151 Q34 175 20 201 L49 201 Q62 178 69 151 L39 151 ZM41 89 Q35 111 22 140 L51 140 Q64 115 71 89 L41 89 Z" /><glyph glyph-name="uni6EF4" unicode="&#x6ef4;" d="M74 -24 L74 140 L108 140 Q104 149 101 163 L130 163 Q133 151 137 140 L174 140 Q179 151 180 163 L209 163 Q208 149 203 140 L236 140 L236 9 Q237 -22 206 -21 L187 -21 L187 -1 L197 -1 Q210 -2 209 9 L209 120 L102 120 L102 -24 L74 -24 ZM110 80 L110 99 L142 99 L142 114 L169 114 L169 99 L200 99 L200 80 L169 80 L169 62 L194 62 L194 28 Q195 0 166 1 L117 1 L117 62 L142 62 L142 80 L110 80 ZM70 169 L70 189 L139 189 L139 206 L174 206 L174 189 L243 189 L243 169 L70 169 ZM14 -21 Q33 30 37 81 L62 81 Q57 21 44 -21 L14 -21 ZM34 93 Q30 118 19 142 L45 142 Q56 119 62 93 L34 93 ZM32 153 Q25 182 17 201 L43 201 Q55 175 59 153 L32 153 ZM140 18 L158 18 Q170 18 170 30 L170 45 L140 45 L140 18 Z" /><glyph glyph-name="uni7684" unicode="&#x7684;" d="M20 -14 L20 175 L49 175 Q53 188 56 204 L86 204 Q83 188 79 175 L118 175 L118 18 Q119 -15 87 -14 L20 -14 ZM171 -20 L171 0 L192 0 Q208 0 207 15 L207 158 L166 158 Q154 138 124 124 L124 143 Q147 162 150 205 L180 205 Q179 201 178 195 Q178 190 175 180 L237 180 L237 14 Q239 -22 204 -20 L171 -20 ZM49 5 L77 5 Q90 4 89 19 L89 74 L49 74 L49 5 ZM49 154 L49 94 L89 94 L89 154 L49 154 ZM154 50 Q150 84 137 119 L162 119 Q176 89 183 50 L154 50 Z" /><glyph glyph-name="uni8981" unicode="&#x8981;" d="M18 176 L18 197 L239 197 L239 176 L172 176 L172 158 L230 158 L230 123 Q232 92 200 93 L26 93 L26 158 L84 158 L84 176 L18 176 ZM12 50 L12 71 L47 71 L47 83 L80 83 L80 71 L176 71 L176 83 L209 83 L209 71 L245 71 L245 50 L207 50 Q201 17 166 1 Q194 -3 236 -7 L236 -26 Q162 -18 128 -9 Q93 -18 19 -26 L19 -7 Q61 -3 90 1 Q53 18 49 50 L12 50 ZM128 11 Q168 25 174 50 L81 50 Q88 24 128 11 ZM113 139 L113 112 L143 112 L143 139 L113 139 ZM55 112 L84 112 L84 139 L55 139 L55 112 ZM201 139 L172 139 L172 112 L190 112 Q202 111 201 124 L201 139 ZM113 176 L113 158 L143 158 L143 176 L113 176 Z" /><glyph glyph-name="uni8FD9" unicode="&#x8fd9;" d="M83 156 L83 178 L145 178 L145 203 L181 203 L181 178 L242 178 L242 156 L220 156 Q210 99 180 68 Q201 51 234 36 L234 15 Q189 32 162 51 Q134 32 88 14 L88 36 Q122 51 142 68 Q113 97 103 156 L83 156 ZM13 -23 L13 -5 Q37 3 36 27 L36 110 L13 110 L13 131 L67 131 L67 36 Q68 2 102 1 L244 1 L244 -19 L100 -19 Q69 -19 56 0 Q41 -20 13 -23 ZM161 88 Q181 111 188 156 L134 156 Q141 111 161 88 ZM42 150 Q38 174 26 200 L54 200 Q66 177 72 150 L42 150 Z" /><glyph glyph-name="uni91CC" unicode="&#x91cc;" d="M31 77 L31 196 L225 196 L225 113 Q225 76 191 77 L145 77 L145 54 L230 54 L230 32 L145 32 L145 5 L243 5 L243 -14 L13 -14 L13 5 L111 5 L111 32 L26 32 L26 54 L111 54 L111 77 L31 77 ZM61 98 L111 98 L111 126 L61 126 L61 98 ZM180 98 Q195 98 195 113 L195 126 L145 126 L145 98 L180 98 ZM61 175 L61 147 L111 147 L111 175 L61 175 ZM195 175 L145 175 L145 147 L195 147 L195 175 Z" /><glyph glyph-name="uni9700" unicode="&#x9700;" d="M12 73 L12 91 L244 91 L244 73 L138 73 Q137 71 136 66 Q134 59 133 57 L228 57 L228 9 Q229 -23 196 -22 L180 -22 L180 -3 L187 -3 Q200 -4 199 9 L199 38 L169 38 L169 -17 L143 -17 L143 38 L113 38 L113 -17 L87 -17 L87 38 L58 38 L58 -24 L29 -24 L29 57 L102 57 Q105 64 106 73 L12 73 ZM28 179 L28 196 L228 196 L228 179 L143 179 L143 165 L238 165 L238 115 L210 115 L210 149 L143 149 L143 99 L113 99 L113 149 L46 149 L46 115 L18 115 L18 165 L113 165 L113 179 L28 179 ZM153 102 L153 115 L200 115 L200 102 L153 102 ZM56 102 L56 115 L103 115 L103 102 L56 102 ZM153 126 L153 138 L200 138 L200 126 L153 126 ZM56 126 L56 138 L103 138 L103 126 L56 126 Z" /><glyph glyph-name="uniFF0C" unicode="&#xff0c;" d="M46 -32 L46 -18 Q67 -3 68 20 L51 20 L51 53 L83 53 L83 24 Q85 -12 46 -32 Z" /></font>
</defs>
</svg>
